{"title":"The Help 2011 DVDRiP XviD AC3- MiSTERE","uid":6824374,"size":2414107520,"categoryP":"video","categoryS":"movies","magnet":"?xt=urn:btih:c827a61dc1b75bd8461e7af522737b44f73375ca&amp;dn=The+Help+2011+DVDRiP+XviD+AC3-+MiSTERE&amp;tr=udp%3A%2F%2Ftracker.openbittorrent.com%3A80&amp;tr=udp%3A%2F%2Fopen.demonii.com%3A1337&amp;tr=udp%3A%2F%2Ftracker.coppersurfer.tk%3A6969&amp;tr=udp%3A%2F%2Fexodus.desync.com%3A6969","seeders":0,"leechers":1,"uploader":"sceneline","files":164,"time":1321520445,"description":"- &lt;a href=&quot;\nhttp://www.Speed.Cd&quot; rel=&quot;nofollow&quot; target=&quot;_NEW&quot;&gt;\nhttp://www.Speed.Cd&lt;/a&gt;      fast  and The Hottest Private Tracker on the net\n\n   signup is open now\n\nPlease Seed back to make the speed Faster!!!\n\n------------------nfo--------------------------\n-The Help 2011 DVDRiP XviD AC3- MiSTERE\n &lt;a href=&quot;\nhttp://www.imdb.com/title/tt1454029/&quot; rel=&quot;nofollow&quot; target=&quot;_NEW&quot;&gt;\nhttp://www.imdb.com/title/tt1454029/&lt;/a&gt;\n\nVideo\nID                               : 0\nFormat                           : MPEG-4 Visual\nFormat profile                   : Advanced Simple@L5\nFormat settings, BVOP            : 2\nFormat settings, QPel            : No\nFormat settings, GMC             : No warppoints\nFormat settings, Matrix          : Default (H.263)\nMuxing mode                      : Packed bitstream\nCodec ID                         : XVID\nCodec ID/Hint                    : XviD\nDuration                         : 2h 26mn\nBit rate                         : 1 792 Kbps\nWidth                            : 720 pixels\nHeight                           : 384 pixels\nDisplay aspect ratio             : 1.875\nFrame rate                       : 23.976 fps\nColor space                      : YUV\nChroma subsampling               : 4:2:0\nBit depth                        : 8 bits\nScan type                        : Progressive\nCompression mode                 : Lossy\nBits/(Pixel*Frame)               : 0.270\nStream size                      : 1.83 GiB (82%)\nWriting library                  : XviD 64\n\nAudio\nID                               : 1\nFormat                           : AC-3\nFormat/Info                      : Audio Coding 3\nMode extension                   : CM (complete main)\nCodec ID                         : 2000\nDuration                         : 2h 26mn\nBit rate mode                    : Constant\nBit rate                         : 384 Kbps\nChannel(s)                       : 6 channels\nChannel positions                : Front: L C R, Side: L R, LFE\nSampling rate                    : 48.0 KHz\nBit depth                        : 16 bits\nCompression mode                 : Lossy\nStream size                      : 402 MiB (18%)\nAlignment                        : Aligned on interleaves\nInterleave, duration             : 42 ms (1.00 video frame)\n\nResized Sharpened and Tweaked RGB\n\n[img]http://i.imgur.com/bmwcE.png[/img]\n[img]http://i.imgur.com/7uzm9.png[/img]\n[img]http://i.imgur.com/JYX1x.png[/img]\n[img]http://i.imgur.com/D6Fds.png[/img]\n[img]http://i.imgur.com/IZMHu.png[/img]","torrent":{"xt":"urn:btih:c827a61dc1b75bd8461e7af522737b44f73375ca","amp;dn":"The+Help+2011+DVDRiP+XviD+AC3-+MiSTERE","amp;tr":["udp%3A%2F%2Ftracker.openbittorrent.com%3A80","udp%3A%2F%2Fopen.demonii.com%3A1337","udp%3A%2F%2Ftracker.coppersurfer.tk%3A6969","udp%3A%2F%2Fexodus.desync.com%3A6969"],"infoHash":"c827a61dc1b75bd8461e7af522737b44f73375ca","infoHashBuffer":{"type":"Buffer","data":[200,39,166,29,193,183,91,216,70,30,122,245,34,115,123,68,247,51,117,202]},"announce":[],"urlList":[]}}